<mxfile host="app.diagrams.net" modified="2020-04-07T14:37:36.014Z" agent="5.0 (Windows NT 10.0; Win64; x64) AppleWebKit/537.36 (KHTML, like Gecko) Chrome/80.0.3987.163 Safari/537.36" etag="zHB_rNDSD4IbbTeVpOac" version="12.9.9" type="github">
  <diagram id="8zcN0xj1MJDYMIesMW4Z" name="Page-1">
    <mxGraphModel dx="2310" dy="783" grid="1" gridSize="10" guides="1" tooltips="1" connect="1" arrows="1" fold="1" page="1" pageScale="1" pageWidth="827" pageHeight="1169" math="0" shadow="0">
      <root>
        <mxCell id="0" />
        <mxCell id="1" parent="0" />
        <mxCell id="0ZDhZJcswcNt1Ie2sL6l-1" value="Drone" style="ellipse;whiteSpace=wrap;html=1;aspect=fixed;" vertex="1" parent="1">
          <mxGeometry x="665" y="430" width="90" height="90" as="geometry" />
        </mxCell>
        <mxCell id="0ZDhZJcswcNt1Ie2sL6l-2" value="Direttore dei lavori" style="ellipse;whiteSpace=wrap;html=1;aspect=fixed;" vertex="1" parent="1">
          <mxGeometry x="-210" y="460" width="80" height="80" as="geometry" />
        </mxCell>
        <mxCell id="0ZDhZJcswcNt1Ie2sL6l-3" value="Servizio di fotogrammetria" style="ellipse;whiteSpace=wrap;html=1;aspect=fixed;" vertex="1" parent="1">
          <mxGeometry x="294" y="1070" width="80" height="80" as="geometry" />
        </mxCell>
        <mxCell id="0ZDhZJcswcNt1Ie2sL6l-4" value="Invio fotografie" style="shape=hexagon;perimeter=hexagonPerimeter2;whiteSpace=wrap;html=1;" vertex="1" parent="1">
          <mxGeometry x="650" y="670" width="120" height="55" as="geometry" />
        </mxCell>
        <mxCell id="0ZDhZJcswcNt1Ie2sL6l-6" value="Scattare fotografie" style="shape=hexagon;perimeter=hexagonPerimeter2;whiteSpace=wrap;html=1;" vertex="1" parent="1">
          <mxGeometry x="650" y="540" width="120" height="55" as="geometry" />
        </mxCell>
        <mxCell id="0ZDhZJcswcNt1Ie2sL6l-8" value="Invio delle foto" style="rounded=1;whiteSpace=wrap;html=1;perimeter=ellipsePerimeter;" vertex="1" parent="1">
          <mxGeometry x="635" y="830" width="150" height="65" as="geometry" />
        </mxCell>
      </root>
    </mxGraphModel>
  </diagram>
</mxfile>
